<svg xmlns="http://www.w3.org/2000/svg" version="1.1" xmlns:xlink="http://www.w3.org/1999/xlink" xmlns:svgjs="http://svgjs.dev/svgjs" width="1000" height="750" viewBox="0 0 1000 750"><rect width="1000" height="750" fill="#ffffff"></rect><g transform="matrix(0.834,0,0,0.834,82.4945462574492,290.71414796178215)"><svg viewBox="0 0 396 80" data-background-color="#ffffff" preserveAspectRatio="xMidYMid meet" height="202" width="1000" xmlns="http://www.w3.org/2000/svg" xmlns:xlink="http://www.w3.org/1999/xlink"><g id="tight-bounds" transform="matrix(1,0,0,1,0.23999961876512543,0.02462285453279378)"><svg viewBox="0 0 395.52 79.95075429093443" height="79.95075429093443" width="395.52"><g><svg viewBox="0 0 575.9459075349661 116.42220301930956" height="79.95075429093443" width="395.52"><g><rect width="7.597014772789328" height="84.66303475716794" x="415.40747322719716" y="15.879584131070814" fill="#ee3e38" opacity="1" stroke-width="0" stroke="transparent" fill-opacity="1" class="rect-o-0" data-fill-palette-color="primary" rx="1%" id="o-0" data-palette-color="#ee3e38"></rect></g><g transform="matrix(1,0,0,1,0,16.090188695143368)"><svg viewBox="0 0 395.52 84.24182562902283" height="84.24182562902283" width="395.52"><g id="textblocktransform"><svg viewBox="0 0 395.52 84.24182562902283" height="84.24182562902283" width="395.52" id="textblock"><g><svg viewBox="0 0 395.52 84.24182562902283" height="84.24182562902283" width="395.52"><g transform="matrix(1,0,0,1,0,0)"><svg width="395.52" viewBox="3.559999942779541 -35.54999923706055 163.1699981689453 35.54999923706055" height="84.24182562902283" data-palette-color="#ee3e38"><g class="wordmark-text-0" data-fill-palette-color="primary" id="text-0"><path d="M3.56-35.55L16.19-35.55Q20.26-35.55 23.14-34.33 26.03-33.11 27.55-30.71 29.08-28.32 29.08-24.83L29.08-24.83Q29.08-22.14 28.1-20.12 27.12-18.09 25.33-16.71 23.54-15.33 21.09-14.58L21.09-14.58 19.19-13.6 7.93-13.6 7.89-18.65 16.24-18.65Q18.41-18.65 19.86-19.41 21.31-20.17 22.03-21.48 22.75-22.8 22.75-24.49L22.75-24.49Q22.75-27.22 21.18-28.85 19.6-30.47 16.19-30.47L16.19-30.47 9.86-30.47 9.86 0 3.56 0 3.56-35.55ZM23.75 0L15.45-15.94 22.07-15.97 30.49-0.32 30.49 0 23.75 0ZM49-30.49L38.45 0 31.83 0 45.21-35.55 49.41-35.55 49-30.49ZM57.74 0L47.17-30.49 46.7-35.55 50.93-35.55 64.35 0 57.74 0ZM57.32-13.21L57.32-8.13 37.96-8.13 37.96-13.21 57.32-13.21ZM74.97-35.55L74.97 0 68.7 0 68.7-35.55 74.97-35.55ZM110.78-35.55L110.78 0 104.46 0 88.79-25.05 88.79 0 82.49 0 82.49-35.55 88.79-35.55 104.51-10.45 104.51-35.55 110.78-35.55Z" fill="#ee3e38" data-fill-palette-color="primary"></path><path d="M140.76-30.49L130.21 0 123.59 0 136.97-35.55 141.17-35.55 140.76-30.49ZM149.5 0L138.93-30.49 138.46-35.55 142.69-35.55 156.11 0 149.5 0ZM149.08-13.21L149.08-8.13 129.72-8.13 129.72-13.21 149.08-13.21ZM166.73-35.55L166.73 0 160.46 0 160.46-35.55 166.73-35.55Z" fill="#8d021f" data-fill-palette-color="secondary"></path></g></svg></g></svg></g></svg></g></svg></g><g transform="matrix(1,0,0,1,442.8919612271837,0)"><svg viewBox="0 0 133.05394630778235 116.42220301930956" height="116.42220301930956" width="133.05394630778235"><g><svg xmlns="http://www.w3.org/2000/svg" xmlns:xlink="http://www.w3.org/1999/xlink" version="1.1" x="0" y="0" viewBox="-8.344650268554688e-7 0 100 87.5" style="enable-background:new 0 0 100 87.5;" xml:space="preserve" width="133.05394630778235" height="116.42220301930956" class="icon-icon-0" data-fill-palette-color="accent" id="icon-0"><path d="M75 12.5c-1.184 0-2.307 0.189-3.442 0.348C67.199 5.146 59.143 0 50 0c-9.338 0-17.395 5.206-21.691 12.812C27.209 12.665 26.111 12.5 25 12.5c-13.781 0-25 11.212-25 25s11.219 25 25 25h50c13.781 0 25-11.212 25-25S88.781 12.5 75 12.5zM75 50H25c-6.896 0-12.5-5.609-12.5-12.5 0-6.854 6.066-12.14 12.512-12.329 0.025 2.948 0.537 5.841 1.562 8.575l11.707-4.382C37.756 27.979 37.5 26.508 37.5 25c0-6.891 5.604-12.5 12.5-12.5 4.041 0 7.703 2.002 9.998 5.121C53.967 22.187 50 29.357 50 37.5h12.5C62.5 30.609 68.104 25 75 25s12.5 5.609 12.5 12.5S81.896 50 75 50z" fill="#8d021f" data-fill-palette-color="accent"></path><path d="M35.266 85.742c-2.344 2.344-6.14 2.344-8.496 0-2.344-2.344-2.344-6.152 0-8.496 2.356-2.344 16.992-8.496 16.992-8.496S37.622 83.398 35.266 85.742z" fill="#8d021f" data-fill-palette-color="accent"></path><path d="M10.254 85.742c-2.344 2.344-6.152 2.344-8.496 0s-2.344-6.152 0-8.496S18.75 68.75 18.75 68.75 12.598 83.398 10.254 85.742z" fill="#8d021f" data-fill-palette-color="accent"></path><path d="M60.254 85.742c-2.344 2.344-6.152 2.344-8.496 0s-2.344-6.152 0-8.496S68.75 68.75 68.75 68.75 62.598 83.398 60.254 85.742z" fill="#8d021f" data-fill-palette-color="accent"></path></svg></g></svg></g></svg></g><defs></defs></svg><rect width="395.52" height="79.95075429093443" fill="none" stroke="none" visibility="hidden"></rect></g></svg></g></svg>